<svg width="32" height="32" viewBox="0 0 32 32" fill="none" xmlns="http://www.w3.org/2000/svg">
<circle cx="15.6616" cy="16.269" r="15.5872" fill="white"/>
<path fill-rule="evenodd" clip-rule="evenodd" d="M9.41284 19.0809C10.5174 19.0809 11.4128 18.1855 11.4128 17.0809C11.4128 15.9763 10.5174 15.0809 9.41284 15.0809C8.30827 15.0809 7.41284 15.9763 7.41284 17.0809C7.41284 18.1855 8.30827 19.0809 9.41284 19.0809Z" fill="#002844"/>
<path fill-rule="evenodd" clip-rule="evenodd" d="M16.4128 19.0809C17.5174 19.0809 18.4128 18.1855 18.4128 17.0809C18.4128 15.9763 17.5174 15.0809 16.4128 15.0809C15.3083 15.0809 14.4128 15.9763 14.4128 17.0809C14.4128 18.1855 15.3083 19.0809 16.4128 19.0809Z" fill="#002844"/>
<path fill-rule="evenodd" clip-rule="evenodd" d="M23.4128 19.0809C24.5174 19.0809 25.4128 18.1855 25.4128 17.0809C25.4128 15.9763 24.5174 15.0809 23.4128 15.0809C22.3083 15.0809 21.4128 15.9763 21.4128 17.0809C21.4128 18.1855 22.3083 19.0809 23.4128 19.0809Z" fill="#002844"/>
</svg>
