<svg width="32" height="32" viewBox="0 0 32 32" fill="none" xmlns="http://www.w3.org/2000/svg">
<circle cx="15.9806" cy="15.9665" r="15.5872" fill="#D6E0E8"/>
<path fill-rule="evenodd" clip-rule="evenodd" d="M9.73181 18.7785C10.8364 18.7785 11.7318 17.883 11.7318 16.7785C11.7318 15.6739 10.8364 14.7785 9.73181 14.7785C8.62724 14.7785 7.73181 15.6739 7.73181 16.7785C7.73181 17.883 8.62724 18.7785 9.73181 18.7785Z" fill="#002844"/>
<path fill-rule="evenodd" clip-rule="evenodd" d="M16.7318 18.7785C17.8364 18.7785 18.7318 17.883 18.7318 16.7785C18.7318 15.6739 17.8364 14.7785 16.7318 14.7785C15.6272 14.7785 14.7318 15.6739 14.7318 16.7785C14.7318 17.883 15.6272 18.7785 16.7318 18.7785Z" fill="#002844"/>
<path fill-rule="evenodd" clip-rule="evenodd" d="M23.7318 18.7785C24.8364 18.7785 25.7318 17.883 25.7318 16.7785C25.7318 15.6739 24.8364 14.7785 23.7318 14.7785C22.6272 14.7785 21.7318 15.6739 21.7318 16.7785C21.7318 17.883 22.6272 18.7785 23.7318 18.7785Z" fill="#002844"/>
</svg>
